<?xml version="1.0" encoding="utf-8"?>
<svg xmlns="http://www.w3.org/2000/svg" xmlns:xlink="http://www.w3.org/1999/xlink" width="255" height="45" viewBox="0 0 255 45">
	<defs>
		<clipPath id="clip-path">
			<rect id="Rectangle_49" data-name="Rectangle 49" width="255" height="45" transform="translate(-0.033 0.341)" fill="#ff4e00" />
		</clipPath>
	</defs>
	<g id="Group_22" data-name="Group 22" transform="translate(-54.968 -31.342)">
		<g id="Group_8" data-name="Group 8" transform="translate(55 31.001)" clip-path="url(#clip-path)">
			<path id="Path_13" data-name="Path 13" d="M23.1,46.206A23.1,23.1,0,0,0,46.2,23.1V6.931A6.93,6.93,0,0,0,39.271,0H24.254V10.135c0,2.313.141,4.708,1.354,6.677a11.551,11.551,0,0,0,7.975,5.345l.442.072a.924.924,0,0,1,0,1.749l-.442.072a11.553,11.553,0,0,0-9.538,9.538l-.072.442a.924.924,0,0,1-1.749,0l-.072-.442a11.551,11.551,0,0,0-5.345-7.975c-1.968-1.213-4.364-1.354-6.677-1.354H.024A23.106,23.106,0,0,0,23.1,46.206" transform="translate(0.596 -1.047)" fill="#ff4e00" />
			<path id="Path_14" data-name="Path 14" d="M0,21.948H10.135c2.313,0,4.708-.141,6.677-1.354a11.579,11.579,0,0,0,3.782-3.782c1.213-1.968,1.354-4.364,1.354-6.677V0H6.931A6.93,6.93,0,0,0,0,6.931ZM53.663,2.31A2.31,2.31,0,1,1,51.352,0a2.31,2.31,0,0,1,2.31,2.31m190.9,11.672c6.458,0,9.575,4.511,9.575,9.736v9.813h-6.759V24.882c0-2.368-.864-4.323-3.342-4.323s-3.3,1.955-3.3,4.323v8.647H233.97V24.882c0-2.368-.826-4.323-3.3-4.323s-3.342,1.955-3.342,4.323v8.647h-6.758V23.716c0-5.225,3.115-9.736,9.574-9.736,3.53,0,6.083,1.391,7.247,3.684,1.238-2.293,3.943-3.685,7.171-3.685ZM208.421,27.516c2.177,0,3.117-1.993,3.117-4.362V14.733H218.3v9.248c0,5.526-3.229,10.113-9.874,10.113s-9.875-4.586-9.875-10.113V14.733H205.3v8.421c0,2.368.938,4.362,3.117,4.362m-19.813,6.616c-4.243,0-6.984-1.466-8.6-4.323l4.882-2.745a3.456,3.456,0,0,0,3.379,1.8c1.39,0,2.027-.489,2.027-1.09,0-2.293-9.912.038-9.912-7.254,0-3.535,3-6.391,8.11-6.391,4.468,0,6.909,2.18,8,4.286L191.611,21.2a3.108,3.108,0,0,0-2.966-1.8c-.976,0-1.5.414-1.5.977,0,2.331,9.912.188,9.912,7.256,0,3.947-3.867,6.5-8.448,6.5m-23.614,8.046h-6.759V24.094c0-5.753,4.318-9.925,10.326-9.925a10.053,10.053,0,0,1,10.326,9.925c0,6.015-3.981,10-9.951,10a8.333,8.333,0,0,1-3.943-1.054Zm3.567-14.436a3.61,3.61,0,1,0-3.567-3.609,3.506,3.506,0,0,0,3.567,3.609m-17.1-15a4.06,4.06,0,1,1,4.056-4.06,4.089,4.089,0,0,1-4.056,4.06m-3.379,1.991h6.759v18.8h-6.759ZM135.118,34.094a9.987,9.987,0,1,1,10.326-10,10.091,10.091,0,0,1-10.326,10m0-6.353a3.628,3.628,0,1,0-3.567-3.61,3.506,3.506,0,0,0,3.567,3.61m-23.088,15c-4.655,0-8.035-2.068-9.762-5.753l5.594-3.007a4.178,4.178,0,0,0,4.055,2.594c2.442,0,4.056-1.542,4.244-4.249a6.573,6.573,0,0,1-4.468,1.391,9.35,9.35,0,0,1-9.426-9.662,10.024,10.024,0,0,1,10.327-9.887c6.008,0,10.326,4.174,10.326,9.925v7.444c0,6.767-4.695,11.2-10.89,11.2m.451-15.375a3.385,3.385,0,0,0,3.567-3.46,3.572,3.572,0,0,0-7.134,0,3.4,3.4,0,0,0,3.567,3.457ZM90.8,34.094a9.987,9.987,0,1,1,10.326-10,10.092,10.092,0,0,1-10.326,10Zm0-6.353a3.628,3.628,0,1,0-3.567-3.61,3.506,3.506,0,0,0,3.567,3.61M68.169,8.155V27.139h11.19v6.391H67.23c-4.28,0-6.007-2.256-6.007-5.828V8.155Z" transform="translate(0.592 -1.047)" fill="#ff4e00" />
		</g>
	</g>
</svg>
