<?xml version="1.0" encoding="utf-8"?>
<svg xmlns="http://www.w3.org/2000/svg" xmlns:xlink="http://www.w3.org/1999/xlink" width="127" height="48" viewBox="0 0 127 48">
	<defs>
		<clipPath id="clip-path">
			<rect id="Rectangle_54" data-name="Rectangle 54" width="127" height="48" transform="translate(0.417 0.342)" fill="#ff4e00" />
		</clipPath>
	</defs>
	<g id="Group_24" data-name="Group 24" transform="translate(-0.417 -0.342)">
		<g id="Group_15" data-name="Group 15" transform="translate(0 0)" clip-path="url(#clip-path)">
			<path id="Path_31" data-name="Path 31" d="M30.118,0a18.682,18.682,0,0,0-13.21,5.472L5.472,16.906A18.684,18.684,0,0,0,31.895,43.329L39.8,35.42,62.849,12.374a8.925,8.925,0,0,1,14.795,3.541l7.275-7.273a18.686,18.686,0,0,0-28.97-3.17L24.993,36.427A8.923,8.923,0,1,1,12.374,23.808L23.808,12.374A8.925,8.925,0,0,1,38.6,15.916l7.275-7.273A18.67,18.67,0,0,0,30.118,0" transform="translate(-0.006 -0.636)" fill="#ff4e00" />
			<path id="Path_32" data-name="Path 32" d="M47.866,36.427a8.925,8.925,0,0,1-14.795-3.541L25.8,40.158a18.686,18.686,0,0,0,28.97,3.17L85.722,12.373a8.923,8.923,0,1,1,12.618,12.62L86.907,36.427a8.925,8.925,0,0,1-14.795-3.541l-7.273,7.273a18.686,18.686,0,0,0,28.97,3.17l11.434-11.436A18.683,18.683,0,0,0,78.82,5.472Z" transform="translate(16.162 -0.636)" fill="#ff4e00" />
		</g>
	</g>
</svg>
