<?xml version="1.0" encoding="utf-8"?>
<svg id="Group_25" data-name="Group 25" xmlns="http://www.w3.org/2000/svg" xmlns:xlink="http://www.w3.org/1999/xlink" width="191.941" height="91.294" viewBox="0 0 191.941 91.294">
	<defs>
		<clipPath id="clip-path">
			<rect id="Rectangle_58" data-name="Rectangle 58" width="191.941" height="91.294" fill="#ff4e00" />
		</clipPath>
	</defs>
	<rect id="Rectangle_56" data-name="Rectangle 56" width="5.747" height="28.181" transform="translate(0 54.809)" fill="#ff4e00" />
	<g id="Group_18" data-name="Group 18" transform="translate(0 0)">
		<g id="Group_17" data-name="Group 17" clip-path="url(#clip-path)">
			<path id="Path_33" data-name="Path 33" d="M4.476,41.345A10.231,10.231,0,1,1,14.705,51.556,10.113,10.113,0,0,1,4.476,41.345m14.674,0A4.446,4.446,0,1,0,14.705,45.9a4.33,4.33,0,0,0,4.175-2.8,4.349,4.349,0,0,0,.27-1.755" transform="translate(4.604 31.99)" fill="#ff4e00" />
			<path id="Path_34" data-name="Path 34" d="M36.646,31.665V50.017c0,6.494-5.078,9.235-10.211,9.235a9.872,9.872,0,0,1-9.14-4.676l4.944-2.854a4.4,4.4,0,0,0,4.309,2.435,3.831,3.831,0,0,0,4.445-4.139V48.236a6.82,6.82,0,0,1-5.632,2.51,9.809,9.809,0,1,1,0-19.618,6.88,6.88,0,0,1,5.632,2.51V31.722Zm-5.652,9.271A4.673,4.673,0,1,0,26.32,45.42a4.37,4.37,0,0,0,4.674-4.484" transform="translate(16 32.015)" fill="#ff4e00" />
			<path id="Path_35" data-name="Path 35" d="M27.584,41.345A10.231,10.231,0,1,1,37.811,51.556,10.113,10.113,0,0,1,27.584,41.345m14.674,0A4.446,4.446,0,1,0,37.811,45.9a4.331,4.331,0,0,0,3.2-1.319,4.325,4.325,0,0,0,1.211-3.24Z" transform="translate(28.377 31.99)" fill="#ff4e00" />
			<path id="Path_36" data-name="Path 36" d="M38.981,30.607a3.509,3.509,0,1,1,1.027,2.459,3.487,3.487,0,0,1-1.027-2.459m.594,5.173h5.747V55.092H39.575Z" transform="translate(40.102 27.9)" fill="#ff4e00" />
			<path id="Path_37" data-name="Path 37" d="M64.96,41.321a9.692,9.692,0,0,1-9.215,10.211A7.334,7.334,0,0,1,50,49.176v9.578H44.25V31.666H50v1.82a7.327,7.327,0,0,1,5.747-2.357A9.7,9.7,0,0,1,64.96,41.321m-5.747,0A4.6,4.6,0,1,0,54.5,46.033a4.408,4.408,0,0,0,4.674-4.713Z" transform="translate(45.522 32.015)" fill="#ff4e00" />
			<path id="Path_38" data-name="Path 38" d="M71.565,45.178c0,4.445-3.832,6.342-8.046,6.342a8.464,8.464,0,0,1-8.3-4.6l5.019-2.854a3.179,3.179,0,0,0,3.276,2.28c1.4,0,2.088-.44,2.088-1.207,0-2.126-9.578-1-9.578-7.663,0-4.216,3.562-6.342,7.663-6.342a8.481,8.481,0,0,1,7.547,4.139L66.2,37.917a2.885,2.885,0,0,0-1.049-1.24,2.848,2.848,0,0,0-1.556-.465c-1,0-1.609.383-1.609,1.091.075,2.2,9.578.728,9.578,7.874" transform="translate(56.811 32.026)" fill="#ff4e00" />
			<path id="Path_39" data-name="Path 39" d="M83.078,31.389V50.7H77.331V48.9a6.613,6.613,0,0,1-5.518,2.357c-3.83,0-7.222-2.779-7.222-8.01V31.389h5.747V42.405a3.184,3.184,0,0,0,.9,2.577,3.174,3.174,0,0,0,2.566.929c2.108,0,3.583-1.225,3.583-3.966V31.389Z" transform="translate(66.447 32.292)" fill="#ff4e00" />
			<path id="Path_40" data-name="Path 40" d="M104.7,39.141v11.84H98.95V39.64c0-1.917-.939-3.181-2.777-3.181s-3.027,1.359-3.027,3.64V50.981H87.4V39.64c0-1.917-.919-3.181-2.777-3.181s-3.009,1.359-3.009,3.64V50.981H75.865V31.669h5.747V33.45a5.937,5.937,0,0,1,5.173-2.317,5.739,5.739,0,0,1,5.058,2.548,6.364,6.364,0,0,1,5.593-2.548c4.368,0,7.261,3.179,7.261,8.008" transform="translate(78.047 32.009)" fill="#ff4e00" />
			<path id="Path_41" data-name="Path 41" d="M94.671,35.684a4.291,4.291,0,1,0-4.291-4.291,4.291,4.291,0,0,0,4.291,4.291" transform="translate(92.979 27.881)" fill="#ff4e00" />
			<path id="Path_42" data-name="Path 42" d="M42.25,40.194a20.1,20.1,0,1,0-20.1-20.1,20.1,20.1,0,0,0,20.1,20.1" transform="translate(22.79 0)" fill="#ff4e00" />
			<path id="Path_43" data-name="Path 43" d="M64.394,40.194A20.1,20.1,0,1,0,44.3,20.1a20.1,20.1,0,0,0,20.1,20.1" transform="translate(45.571 0)" fill="#ff4e00" />
			<rect id="Rectangle_57" data-name="Rectangle 57" width="40.173" height="40.173" transform="translate(0.039)" fill="#ff4e00" />
		</g>
	</g>
</svg>
