<?xml version="1.0" encoding="utf-8"?>
<svg xmlns="http://www.w3.org/2000/svg" xmlns:xlink="http://www.w3.org/1999/xlink" width="142" height="90" viewBox="0 0 142 90">
	<defs>
		<clipPath id="clip-path">
			<rect id="Rectangle_52" data-name="Rectangle 52" width="142" height="90" transform="translate(0.137 0.277)" fill="#ff4e00" />
		</clipPath>
	</defs>
	<g id="Group_23" data-name="Group 23" transform="translate(-0.137 -0.277)">
		<g id="Group_13" data-name="Group 13" transform="translate(0 0)" clip-path="url(#clip-path)">
			<path id="Path_17" data-name="Path 17" d="M66.378,5.989a1.159,1.159,0,0,1-.026.312,14.759,14.759,0,0,0-.055,3.07,1.307,1.307,0,0,0,.321.73.63.63,0,0,0,1.091-.156,1.082,1.082,0,0,0,.053-.7A12.923,12.923,0,0,1,67.414,6.2V5.989c.294-.026.56-.053.8-.053a1.239,1.239,0,0,0,.479-.13.452.452,0,0,0-.026-.858,1.324,1.324,0,0,0-.56-.1c-.665.024-1.331.024-2,.024a6.577,6.577,0,0,0-.718.053,1.02,1.02,0,0,0-.4.1.389.389,0,0,0,0,.755.612.612,0,0,0,.371.105c.319.026.665.077,1.012.1m7.318,1.2a.092.092,0,0,0,.026.053c.108.7.213,1.378.292,2.055a1.069,1.069,0,0,0,.213.625.628.628,0,0,0,1.118-.079,1.134,1.134,0,0,0,.081-.728c-.16-.781-.239-1.56-.4-2.315-.108-.469-.239-.911-.373-1.329A.621.621,0,0,0,74.069,5a.644.644,0,0,0-.692.337,3.286,3.286,0,0,0-.4.651c-.187.416-.347.832-.56,1.223a.768.768,0,0,1-.105.26.285.285,0,0,0-.053-.077c-.347-.651-.665-1.3-1.012-1.927a.537.537,0,0,1-.105-.154.72.72,0,0,0-.639-.365.791.791,0,0,0-.613.416,1.159,1.159,0,0,0-.079.286c-.108.834-.239,1.666-.347,2.5a12.5,12.5,0,0,0-.079,1.4.516.516,0,0,0,.053.339.476.476,0,0,0,.426.363c.266.026.452-.051.532-.26a1.446,1.446,0,0,0,.134-.416c.108-.469.187-.911.266-1.353.053-.26.079-.469.16-.755a1.993,1.993,0,0,0,.16.26,6.182,6.182,0,0,0,.771.885.531.531,0,0,0,.771-.051l.134-.13c.239-.365.532-.728.771-1.093.055-.053.081-.1.134-.156" transform="translate(66.807 6.187)" fill="#ff4e00" />
			<path id="Path_18" data-name="Path 18" d="M39,6.372a1.813,1.813,0,0,0-.134,1.148c.093.4.339.536.669.432,3.126-.755,9.981,1.39,12.519,1.988.6.126,1.085-.631.678-1.307-.6-.657-7.448-3.465-10.063-3.617C41.645,4.96,39.813,4.7,39,6.372" transform="translate(40.184 6.314)" fill="#ff4e00" />
			<path id="Path_19" data-name="Path 19" d="M55.391,1.264A1.341,1.341,0,0,1,56,1.832c.138.262.065.444-.164.538-2.067.986-4.816,5.23-5.926,6.695-.27.337-.891.14-.984-.414a22.4,22.4,0,0,1,3.818-6.486c.534-.491,1.416-1.453,2.645-.9" transform="translate(50.581 2.333)" fill="#ff4e00" />
			<path id="Path_20" data-name="Path 20" d="M44.325.3c.4-.294.816-.4,1.029-.207,3.118,2.607,4.772,6.735,5.794,10.515a.573.573,0,0,1,.01.345.492.492,0,0,1-.229.325c-.144.1-.266.132-.325.045C49.237,9.51,41.434,2.44,44.325.3" transform="translate(45.191 1.203)" fill="#ff4e00" />
			<path id="Path_21" data-name="Path 21" d="M23.252,32.049A11.613,11.613,0,0,1,25.67,30.7a4.411,4.411,0,0,1,2.731.12,4.288,4.288,0,0,1,2.108,1.7,4.025,4.025,0,0,1-.678,4.873,8.179,8.179,0,0,1-1.668,1.325c-2.735,1.726-5.492,3.358-8.251,5.084a13.5,13.5,0,0,1-1.789,1.16,4.669,4.669,0,0,1-3.082.351,4.581,4.581,0,0,1-2.6-1.651,9.274,9.274,0,0,1-1.209-1.917C8.616,36.378,5.906,31.032,3.39,25.567A71.407,71.407,0,0,1,.367,17.858,3.218,3.218,0,0,1,.15,15.393a3.31,3.31,0,0,1,1.6-1.915,3.43,3.43,0,0,1,2.516-.28,3.356,3.356,0,0,1,2,1.513A38.6,38.6,0,0,1,9.85,20.294c2.613,4.729,5.1,9.46,7.62,14.049a7.26,7.26,0,0,0,.485.732,23.578,23.578,0,0,0,5.3-3.027" transform="translate(0.246 14.655)" fill="#ff4e00" />
			<path id="Path_22" data-name="Path 22" d="M36.727,36.609c-5.975,6.835-15.989,5.108-21.022-3.69C12.126,26.674,11.5,16.362,19.286,9.858a12.97,12.97,0,0,1,5.782-2.7,12.752,12.752,0,0,1,7.606,1.286,12.359,12.359,0,0,1,5.384,5.407c4.258,7.569,3.654,17.22-1.331,22.755M34.309,20.667A8.527,8.527,0,0,0,30.7,16.173a5.217,5.217,0,0,0-6.458.4c-3.459,3-4.185,10.123-1.67,14.358a5.213,5.213,0,0,0,1.38,1.8,5.37,5.37,0,0,0,2.027,1.061,5.45,5.45,0,0,0,2.3.126,5.386,5.386,0,0,0,2.134-.832,11.154,11.154,0,0,0,3.936-5.6,10.925,10.925,0,0,0-.114-6.794Z" transform="translate(13.784 8.443)" fill="#ff4e00" />
			<path id="Path_23" data-name="Path 23" d="M45.868,25.573a4.8,4.8,0,0,1-3.583-.661,3.536,3.536,0,0,1-1.148-1.029,3.406,3.406,0,0,1-.507-2.93,3.468,3.468,0,0,1,.736-1.341,4.434,4.434,0,0,1,2.422-1.584,35.693,35.693,0,0,1,7.738-1.3,4.423,4.423,0,0,1,3.246.921,4.258,4.258,0,0,1,1.1,1.3,4.177,4.177,0,0,1,.5,1.613,18.054,18.054,0,0,1,.241,8.492c-2.179,9.083-9.677,12.2-18.094,9.3a12.53,12.53,0,0,1-5.95-4.163,19.355,19.355,0,0,1-4.185-8.066,16.593,16.593,0,0,1,.189-8.01,16.9,16.9,0,0,1,3.924-7.034,17.1,17.1,0,0,1,6.677-4.991,7.688,7.688,0,0,1,5.417-.708,2.4,2.4,0,0,1,1.093.635A2.368,2.368,0,0,1,46.292,7.1a2.293,2.293,0,0,1-.039,1.244,2.336,2.336,0,0,1-.676,1.051,12.592,12.592,0,0,1-1.96,1.42A19.979,19.979,0,0,0,38.1,15.9a10.92,10.92,0,0,0-1.862,9.2,10.651,10.651,0,0,0,3.483,5.51c5.323,4.731,12.242.166,11.032-6.291-1.767.426-3.315.876-4.885,1.254" transform="translate(29.028 6.518)" fill="#ff4e00" />
			<path id="Path_24" data-name="Path 24" d="M62.521,37.848c-7.861,4.731-16.812,0-18.772-9.933-1.426-7.1,1.282-17.031,10.767-20.815a13.153,13.153,0,0,1,6.362-.8,12.664,12.664,0,0,1,6.794,3.565,12.2,12.2,0,0,1,3.39,6.772c1.6,8.444-2.033,17.455-8.541,21.215M65.256,21.93a8.236,8.236,0,0,0-2.008-5.368,5.084,5.084,0,0,0-2.83-1.887,5.192,5.192,0,0,0-3.41.3c-4.258,1.8-7.257,8.326-6.169,13.128a5.127,5.127,0,0,0,.734,2.128,5.271,5.271,0,0,0,1.582,1.629,5.429,5.429,0,0,0,4.433.69,11.411,11.411,0,0,0,5.573-4.11,11.01,11.01,0,0,0,2.1-6.51" transform="translate(44.887 7.582)" fill="#ff4e00" />
			<path id="Path_25" data-name="Path 25" d="M64.35,39.834a3.275,3.275,0,0,1-1.294,2.179,3.428,3.428,0,0,1-2.491.647,3.391,3.391,0,0,1-2.23-1.266,3.245,3.245,0,0,1-.661-2.437,3.282,3.282,0,0,1,1.294-2.179,3.42,3.42,0,0,1,4.723.619,3.236,3.236,0,0,1,.659,2.437m-2.1-31.908a3.865,3.865,0,0,1,1.925-1.491,3.96,3.96,0,0,1,2.453-.069,3.676,3.676,0,0,1,2.047,1.327,3.538,3.538,0,0,1,.736,2.29,27.676,27.676,0,0,1-.607,3.928c-.8,4.376-1.572,8.75-2.418,13.079-.387,1.726-.895,3.382-1.451,5.133a3.672,3.672,0,0,1-.943,1.442,2.423,2.423,0,0,1-.986.674,2.467,2.467,0,0,1-1.195.126,2.436,2.436,0,0,1-1.11-.45A2.386,2.386,0,0,1,59.947,33a5.338,5.338,0,0,1-.458-2.057c0-2.934,0-5.889.193-8.845A84.232,84.232,0,0,1,61.617,9.557,4.7,4.7,0,0,1,62.246,8Z" transform="translate(59.548 7.585)" fill="#ff4e00" />
			<path id="Path_26" data-name="Path 26" d="M6.571,33.122a3.209,3.209,0,0,0-.225,1.988,10.575,10.575,0,0,0,.609,2.581c.387,1.02.82,2.029,1.355,3.272.124.286.252.584.385.9.722,1.684,1.627,3.836,2.832,6.953.343.885.645,1.777.951,2.676q.186.545.373,1.091a8.171,8.171,0,0,0,2.272,3.388,3.486,3.486,0,0,0,1.68,1.063A3.536,3.536,0,0,0,18.841,57a3.463,3.463,0,0,0,1.664-1.15,3.344,3.344,0,0,0,.712-1.826,7.182,7.182,0,0,0-.268-3.881c-.706-2.069-1.509-4.143-2.437-6.171l0-.008c-1.526-3.173-3.076-6.322-4.7-9.474l-.012-.022A8.2,8.2,0,0,0,11.972,32.3a3.2,3.2,0,0,0-1.856-1.045,3.23,3.23,0,0,0-2.153.371,3.3,3.3,0,0,0-1.392,1.5" transform="translate(6.706 33.303)" fill="#ff4e00" fill-rule="evenodd" />
			<path id="Path_27" data-name="Path 27" d="M25.038,28.569a17.332,17.332,0,0,0-7.32-.26A11.484,11.484,0,0,0,12.7,29.756a3.785,3.785,0,0,0-1.477,1.676,3.623,3.623,0,0,0-.091,2.4c.442,1.639,1.016,3.232,1.589,4.82l.093.258,0,0q2.587,6.923,5.218,13.8a9.544,9.544,0,0,0,.864,2.077l.006.012a8.425,8.425,0,0,0,1.846,2.159,2.786,2.786,0,0,0,1.317.676,2.826,2.826,0,0,0,1.5-.089,2.779,2.779,0,0,0,1.233-.836,2.7,2.7,0,0,0,.6-1.315,6.478,6.478,0,0,0-.29-3.952c-.158-.422-.284-.854-.414-1.311-.045-.15-.089-.306-.134-.463,4.017-1.536,8.294-3.6,9.8-8.405a8.342,8.342,0,0,0,.14-5.147,8.5,8.5,0,0,0-2.923-4.289,17.124,17.124,0,0,0-6.541-3.258m-6.63,5.892c.079-.022.158-.043.239-.063a11.188,11.188,0,0,1,7.537,1.509,2.948,2.948,0,0,1,1.463,2.138,3.461,3.461,0,0,1-.757,2.313,7.33,7.33,0,0,1-4.674,2.84c-1.256-2.828-2.53-5.77-3.808-8.738" transform="translate(11.536 30.046)" fill="#ff4e00" fill-rule="evenodd" />
			<path id="Path_28" data-name="Path 28" d="M28.367,26.331a13.231,13.231,0,0,1,9.135-.6,3.124,3.124,0,0,1,1.706,1.211,3,3,0,0,1,.532,1.984,2.835,2.835,0,0,1-.335,1.307,2.884,2.884,0,0,1-.923,1.031,3.013,3.013,0,0,1-2.7.351L35.75,31.6l-.03-.016A3.138,3.138,0,0,0,35,31.32l-.014,0a4.214,4.214,0,0,0-4.443,1.359,1.287,1.287,0,0,0-.093,1.432,3.816,3.816,0,0,0,2.4,1.408c.387.1.787.2,1.191.306a35.245,35.245,0,0,1,3.4.984l0,0c5.177,1.925,7.107,5.916,6.445,9.669a10.083,10.083,0,0,1-8.59,7.886,10.437,10.437,0,0,1-5.236-.213,10.236,10.236,0,0,1-4.447-2.735l-.032-.034a3.759,3.759,0,0,1-.755-1.643,2.823,2.823,0,0,1,.158-1.611,2.919,2.919,0,0,1,1.012-1.268,3.153,3.153,0,0,1,3.4-.258,6.6,6.6,0,0,1,1.461.945l.008.008a3.012,3.012,0,0,0,2.629.71,3.961,3.961,0,0,0,2.337-1.408,2.489,2.489,0,0,0,.511-2.339c-.266-.814-1.061-1.726-2.808-2.487-.458-.191-.931-.343-1.424-.493-.132-.041-.268-.079-.4-.12-.365-.11-.74-.219-1.108-.343-.254-.085-.505-.164-.753-.243a19.555,19.555,0,0,1-1.98-.71,6.8,6.8,0,0,1-3.42-2.532,6.559,6.559,0,0,1-1.2-4.043c0-3.506,2.264-5.922,5.127-7.214" transform="translate(24.15 27.106)" fill="#ff4e00" />
			<path id="Path_29" data-name="Path 29" d="M53.428,25.75a3.767,3.767,0,0,0-3.518.142,3.66,3.66,0,0,0-1.278,1.244,3.881,3.881,0,0,0-.582,2.946c.1.649.217,1.278.331,1.9.187,1.029.367,2.033.487,3.057l0,.026a30.294,30.294,0,0,1,.428,4.863l0,.022a6.67,6.67,0,0,1-1.708,4.81l-.018.022a3.386,3.386,0,0,1-1.493,1.067,3.438,3.438,0,0,1-1.844.142,3.4,3.4,0,0,1-1.643-.826,3.31,3.31,0,0,1-.958-1.55,16.559,16.559,0,0,1-.609-3.828l.6-9.385.03-.375c.022-.286.047-.576.055-.846a4.462,4.462,0,0,0-.091-1.2,2.25,2.25,0,0,0-.611-1.1,3.068,3.068,0,0,0-1.315-.712,3.833,3.833,0,0,0-2.542.018,3.114,3.114,0,0,0-1.526,1.459,8.072,8.072,0,0,0-.72,2.09c-.122.546-.219,1.118-.312,1.664-.032.187-.065.371-.1.552l0,0a39.173,39.173,0,0,0-.442,9.048,12.925,12.925,0,0,0,1.029,4.753A10.266,10.266,0,0,0,38.845,50.6a10.677,10.677,0,0,0,11.884.2,10.3,10.3,0,0,0,3.924-4.715A17.236,17.236,0,0,0,56.171,38.3c-.065-1.954-.174-3.922-.282-5.879q-.079-1.442-.154-2.873a4.6,4.6,0,0,0-.923-2.652,3.684,3.684,0,0,0-1.384-1.144" transform="translate(35.195 27.314)" fill="#ff4e00" />
			<path id="Path_30" data-name="Path 30" d="M62.25,39.982l-.177.217c-.45-2.534-.866-5.068-1.282-7.6-.15-.909-.3-1.824-.45-2.735l-.018-.1-.055-.087A1.168,1.168,0,0,1,60.152,29v-.041l-.006-.039a3.552,3.552,0,0,0-.947-1.907,3.7,3.7,0,0,0-1.875-1.053,3.827,3.827,0,0,0-2.167.112,3.744,3.744,0,0,0-1.741,1.26,6.061,6.061,0,0,0-.891,1.461q-.764,1.7-1.54,3.408l-.01.02c-1.288,2.842-2.585,5.7-3.844,8.59l0,.008c-.773,1.871-1.412,3.84-2.047,5.806-.128.392-.254.783-.381,1.175a4.819,4.819,0,0,0-.3,1.937,2.821,2.821,0,0,0,.414,1.684,2.93,2.93,0,0,0,1.359,1.165,3.023,3.023,0,0,0,1.905.154,2.958,2.958,0,0,0,1.6-1.016A10.683,10.683,0,0,0,51,49.709c1.067-2.134,2.088-4.295,3.1-6.445.394-.832.775-1.576,1.209-2.388.028.1.059.2.091.3a18.825,18.825,0,0,0,2.276,5.559,2.886,2.886,0,0,0,.814.937,3,3,0,0,0,3.577,0l.676-.493,5.238-4.315-.31,1.931c-.424,2.654-.846,5.285-1.294,7.916a7.252,7.252,0,0,0,0,3.55A3.335,3.335,0,0,0,67.313,58a3.465,3.465,0,0,0,1.781.933,3.515,3.515,0,0,0,2.01-.2,3.427,3.427,0,0,0,1.526-1.252,6.941,6.941,0,0,0,1.55-3.654c.221-1.891.473-3.806.724-5.721.29-2.207.578-4.415.824-6.579v-.006a70.318,70.318,0,0,0,.343-7.129,3.53,3.53,0,0,0-.55-2.142,3.661,3.661,0,0,0-1.733-1.428,3.9,3.9,0,0,0-2.382-.254,3.86,3.86,0,0,0-2.057,1.171,29.686,29.686,0,0,0-2.712,2.8l-.006.006c-.919,1.12-1.83,2.26-2.737,3.392-.55.69-1.1,1.378-1.645,2.053" transform="translate(45.919 27.799)" fill="#ff4e00" />
		</g>
	</g>
</svg>
